<svg xmlns="http://www.w3.org/2000/svg" viewBox="67.347 11669.36 143.07 132.263">
  <g id="Group_106" data-name="Group 106" transform="translate(67.347 11669.36)">
    <g id="Group_2" data-name="Group 2" transform="translate(41.699 43.582)">
      <g id="Group_1" data-name="Group 1">
        <path id="Path_1" data-name="Path 1" d="M92.5,80.366l-2.937-6.7a22.005,22.005,0,0,0,9.984-4.816c-2.7,1.762-7.4,2.349-10.924,2.584L80.4,52.527h-.7S76.172,61.22,72.648,69.09C60.785,64.156,50.683,53.467,50.683,53.467S60.9,42.543,62.429,40.546s.47-2.584.47-2.584c-1.175-.94-3.876,0-3.876,0,.587,1.292-1.292,3.641-1.292,3.641L45.4,53.82v-10.1s-.117-2.7,1.175-3.876,3.876-.94,3.876-.94V37.845H36.117V38.9s3.524,0,4.229,1.057.7,2.232.7,3.876V64.391s0,2.349-.94,3.171-2.7.94-4.111.94v1.175H50.33V68.62s-3.172.235-4.229-1.292a4.324,4.324,0,0,1-.822-2.937V53.937C54.912,63.8,63.6,69.325,71.239,72.026c-2.349,5.286-4.464,9.749-5.051,10.1-1.527,1.057-4.111.7-4.111.7v1.175h12.1V82.833l-2.114-.117c-3.641-.587-2-3.406-2-3.406L73.118,72.5a33.756,33.756,0,0,0,12.216,1.527c1.175,2.584,2,4.7,2.232,5.286,2,4.229-4.111,3.641-4.111,3.641v.94H97.668v-.94L95.2,82.833C93.557,82.715,92.5,80.366,92.5,80.366Zm-8.34-8.81a26.558,26.558,0,0,1-9.867-1.762L78.874,59.34c.117,0,2.937,6.578,5.286,12.216Z" transform="translate(-35.413 -37.025)"/>
        <path id="Path_2" data-name="Path 2" d="M74.968,84.789H61.812V82.44l.587.117a7.517,7.517,0,0,0,3.759-.587c.235-.235,1.057-1.527,4.581-9.4-8.1-3.054-16.445-8.692-24.667-17.032V64.7a4.354,4.354,0,0,0,.7,2.584c.7.94,2.937,1.057,3.759,1.057h.587v2.232H35.5V68.345h.587c1.879,0,3.054-.235,3.759-.822a4.118,4.118,0,0,0,.822-2.7V44.147a6.135,6.135,0,0,0-.587-3.406c-.352-.47-2.232-.822-3.759-.822h-.587V37.687H51.123v2.232h-.587s-2.349-.117-3.406.822c-.94.822-.94,2.7-.94,3.406v8.81L57.583,41.8c.7-.94,1.527-2.467,1.292-3.054l-.47-.94.587-.235c.352-.117,2.937-1.057,4.346.117a1.5,1.5,0,0,1,.587.822,3.007,3.007,0,0,1-.94,2.467c-1.41,1.762-9.632,10.572-11.511,12.569,1.879,1.879,10.807,10.572,20.908,14.918C75.79,60.71,79.2,52.487,79.2,52.37l.117-.352h1.41l8.222,18.912c3.289-.235,7.753-.822,10.219-2.467l.7.822a21.791,21.791,0,0,1-9.514,4.7l2.7,6.108c.235.587,1.175,2.114,2.232,2.232l2.937.117v2H83.072V82.323l.587.117c.822.117,3.054.117,3.759-.94.352-.47.235-1.057-.117-1.879q-.352-.7-2.114-4.933a33.777,33.777,0,0,1-11.629-1.527L70.739,79.5a1.676,1.676,0,0,0,1.645,2.584l2.584.117Zm-12.1-1.175H73.793L72.148,83.5a3.511,3.511,0,0,1-2.7-1.644,2.943,2.943,0,0,1,.235-2.7l3.171-7.165.47.117a33.624,33.624,0,0,0,12.1,1.527h.352l.117.352c1.292,3.054,2,4.7,2.232,5.168a2.837,2.837,0,0,1,0,3.054,3,3,0,0,1-2.232,1.175h9.28c-2-.235-3.171-2.7-3.171-2.819h0l-3.171-7.4.7-.117a26.352,26.352,0,0,0,5.638-1.879,42.728,42.728,0,0,1-6.343.822h-.352L80.253,53.075c-.7,1.762-3.876,9.28-6.93,16.21l-.235.47H72.5c-11.864-4.933-22.083-15.623-22.2-15.74l-.352-.352.352-.352c.117-.117,10.219-10.924,11.746-12.8a2.588,2.588,0,0,0,.7-1.527.41.41,0,0,0-.117-.235h-.117c-.587-.47-2-.235-2.819,0,.117,1.41-1.292,3.289-1.527,3.641L46.189,54.132c8.575,8.692,17.15,14.683,25.489,17.619l.587.235-.235.587C67.685,82.323,67.1,82.793,66.745,82.91a10.074,10.074,0,0,1-3.876.7ZM36.675,69.167H49.243c-1.175-.117-2.7-.47-3.406-1.527a4.827,4.827,0,0,1-.94-3.289V55.189h0V43.795c0-.117-.117-2.937,1.292-4.346a5.59,5.59,0,0,1,2.937-1.057H36.91c1.175.117,3.289.352,3.994,1.292a7.412,7.412,0,0,1,.822,3.994V64.351c0,.235,0,2.584-1.175,3.524a5.366,5.366,0,0,1-3.876,1.292Zm48.512,3.054h-.94v0a27.365,27.365,0,0,1-10.1-1.762l-.47-.235,5.4-12.216.47,1.175S82.368,65.76,84.834,71.4Zm-9.984-2.7a24.669,24.669,0,0,0,8.34,1.527c-1.762-3.994-3.524-8.34-4.464-10.337Z" transform="translate(-35.5 -37.103)"/>
      </g>
    </g>
    <g id="Group_3" data-name="Group 3" transform="translate(0 70.243)">
      <path id="Path_3" data-name="Path 3" d="M1.057,59.917a.115.115,0,0,1,.117-.117h.117c.117,0,.117,0,.117.117l1.879,4.111h0l1.879-4.111.117-.117H5.4a.115.115,0,0,1,.117.117l1.057,5.756c0,.117,0,.235-.117.235h-.7a.115.115,0,0,1-.117-.117L5.168,62.5h0L3.641,65.908l-.117.117H3.289c-.117,0-.117,0-.117-.117L1.644,62.5h0l-.47,3.289a.115.115,0,0,1-.117.117H.117C0,65.908,0,65.791,0,65.673Z" transform="translate(0 -59.8)"/>
      <path id="Path_4" data-name="Path 4" d="M6.3,65.673,9,59.917l.117-.117h.117c.117,0,.117,0,.117.117l2.7,5.756c0,.117,0,.235-.117.235h-.7c-.117,0-.235,0-.235-.117l-.47-.94H7.944l-.47.94c0,.117-.117.117-.235.117h-.7A.253.253,0,0,1,6.3,65.673Zm3.759-1.879-.822-1.879h0L8.3,63.794Z" transform="translate(1.1 -59.8)"/>
      <path id="Path_5" data-name="Path 5" d="M13.01,60.957H11.717a.115.115,0,0,1-.117-.117v-.822a.115.115,0,0,1,.117-.117h3.759a.115.115,0,0,1,.117.117v.7a.115.115,0,0,1-.117.117H14.184v4.816a.115.115,0,0,1-.117.117h-.822a.115.115,0,0,1-.117-.117v-4.7Z" transform="translate(2.026 -59.783)"/>
    </g>
    <g id="Group_4" data-name="Group 4" transform="translate(128.269 70.243)">
      <path id="Path_6" data-name="Path 6" d="M109.2,60.135c0-.117,0-.235.117-.235h.822c.117,0,.117,0,.117.117l1.644,3.641h.117l1.644-3.641.117-.117h.822c.117,0,.235.117.117.235l-2.7,5.756-.117.117h-.117c-.117,0-.117,0-.117-.117Z" transform="translate(-109.2 -59.783)"/>
      <path id="Path_7" data-name="Path 7" d="M115,60.017a.115.115,0,0,1,.117-.117h.822a.115.115,0,0,1,.117.117v5.638a.115.115,0,0,1-.117.117h-.822a.115.115,0,0,1-.117-.117Z" transform="translate(-108.187 -59.783)"/>
      <path id="Path_8" data-name="Path 8" d="M117.617,59.917a.115.115,0,0,1,.117-.117h.235l3.524,3.759h0V60.035a.115.115,0,0,1,.117-.117h.822a.115.115,0,0,1,.117.117v5.756a.115.115,0,0,1-.117.117H122.2l-3.641-3.994h0v3.641a.115.115,0,0,1-.117.117h-.822a.115.115,0,0,1-.117-.117V59.917Z" transform="translate(-107.751 -59.8)"/>
    </g>
    <g id="Group_24" data-name="Group 24" transform="translate(10.025 0)">
      <g id="Group_15" data-name="Group 15">
        <g id="Group_5" data-name="Group 5" transform="translate(0 28.566)">
          <path id="Path_9" data-name="Path 9" d="M8.729,32.989c-.235-.117-.235-.47-.117-.7l.352-.47a.443.443,0,0,1,.7-.117l4.7,3.171-1.292-8.927a.706.706,0,0,1,.117-.47l.587-.94c.235-.352.7-.235.7.117l1.175,9.045,9.632-2.232c.235,0,.587.235.352.7l-.587.94c-.117.117-.235.235-.352.235l-9.514,2,5.286,3.524c.235.117.235.47.117.7l-.352.47a.443.443,0,0,1-.7.117Z" transform="translate(-8.534 -24.319)"/>
        </g>
        <g id="Group_6" data-name="Group 6" transform="translate(10.091 15.652)">
          <path id="Path_10" data-name="Path 10" d="M17.213,21.283a.533.533,0,0,1,0-.587l.587-.587a.524.524,0,0,1,.587,0l5.638,6.226a3.79,3.79,0,0,0,5.756.235,3.9,3.9,0,0,0,.352-5.756L24.5,14.588a.524.524,0,0,1,0-.587l.587-.587a.533.533,0,0,1,.587,0l5.756,6.343c2.114,2.232,1.879,5.521-.587,7.87a5.457,5.457,0,0,1-7.87-.117Z" transform="translate(-17.125 -13.325)"/>
        </g>
        <g id="Group_7" data-name="Group 7" transform="translate(25.4 10.406)">
          <path id="Path_11" data-name="Path 11" d="M30.207,9.847a.517.517,0,0,1,.117-.587l.822-.352a.517.517,0,0,1,.587.117l6.108,10.807,5.4-3.054a.517.517,0,0,1,.587.117l.235.47a.517.517,0,0,1-.117.587l-6.578,3.641a.517.517,0,0,1-.587-.117Z" transform="translate(-30.159 -8.859)"/>
        </g>
        <g id="Group_8" data-name="Group 8" transform="translate(37.737 4.3)">
          <path id="Path_12" data-name="Path 12" d="M40.707,4.529c-.117-.235,0-.47.235-.47l.822-.352c.235-.117.47,0,.47.235l4.7,12.569c.117.235,0,.47-.235.47l-.822.352c-.235.117-.47,0-.47-.235Z" transform="translate(-40.661 -3.661)"/>
        </g>
        <g id="Group_9" data-name="Group 9" transform="translate(47.062)">
          <path id="Path_13" data-name="Path 13" d="M48.6,1.879c0-.235.117-.352.352-.47l.587-.117,11.276,9.867h0L59.289.47c0-.235.117-.352.352-.47h.822c.235,0,.47.117.47.352l1.879,13.391c0,.235-.117.352-.352.47h-.352L50.6,4.111h0l1.527,10.924c0,.235-.117.352-.352.47l-.7.117c-.235,0-.47-.117-.47-.352Z" transform="translate(-48.6 0)"/>
        </g>
        <g id="Group_10" data-name="Group 10" transform="translate(64.168 0.774)">
          <path id="Path_14" data-name="Path 14" d="M63.207,13.276,71.781.825c.117-.117.235-.235.352-.117h.235c.235,0,.235.117.352.235L77.185,15.39c.117.235-.117.47-.47.47l-.822-.117c-.235,0-.352-.117-.352-.235l-1.057-3.524-7.635-1.175-2.114,3.054a.225.225,0,0,1-.352.117l-.822-.117C63.207,13.746,63.089,13.511,63.207,13.276Zm10.924-2.7L72.016,3.526H71.9L67.67,9.634Z" transform="translate(-63.163 -0.659)"/>
        </g>
        <g id="Group_11" data-name="Group 11" transform="translate(80.963 4.386)">
          <path id="Path_15" data-name="Path 15" d="M83.263,3.929c.117-.235.352-.235.587-.117L88.9,6.161a4.471,4.471,0,0,1,2.467,5.873,4.489,4.489,0,0,1-4.7,2.349l.587,5.873c0,.352-.235.587-.587.352l-1.057-.47c-.235-.117-.235-.235-.235-.352l-.352-6.108-3.759-1.762-2.114,4.7c-.117.235-.352.235-.587.117l-.822-.352c-.235-.117-.352-.352-.235-.47Zm2.467,8.81a3.094,3.094,0,0,0,4.111-1.41A2.971,2.971,0,0,0,88.2,7.453L84.437,5.691,81.97,10.977Z" transform="translate(-77.461 -3.734)"/>
        </g>
        <g id="Group_12" data-name="Group 12" transform="translate(94.234 13.373)">
          <path id="Path_16" data-name="Path 16" d="M97.03,11.52a.388.388,0,0,1,.587,0l.7.587a.517.517,0,0,1,.117.587l-8.1,10.572a.388.388,0,0,1-.587,0l-.822-.587a.517.517,0,0,1-.117-.587Z" transform="translate(-88.759 -11.385)"/>
        </g>
        <g id="Group_13" data-name="Group 13" transform="translate(99.803 20.239)">
          <path id="Path_17" data-name="Path 17" d="M94.087,23.655h.47c.352,0,.587.117.587.47a5.931,5.931,0,0,0,1.292,3.759c1.175,1.292,2.7,1.527,3.641.7,1.057-.94.822-2.467-.117-4.933-.822-2.467-1.057-4.111.587-5.638,1.057-.94,3.524-1.527,5.756,1.175a7.411,7.411,0,0,1,1.644,3.524.55.55,0,0,1-.47.587h-.47c-.352,0-.587-.117-.587-.47a6.366,6.366,0,0,0-1.175-2.7c-1.527-1.762-3.054-1.41-3.641-.822-1.057.94-.94,2.232-.235,4.111,1.057,2.937,1.527,5.051-.235,6.578-1.527,1.41-4.111.822-5.873-1.175A7.37,7.37,0,0,1,93.5,24.243C93.735,24.008,93.617,23.773,94.087,23.655Z" transform="translate(-93.5 -17.23)"/>
        </g>
        <g id="Group_14" data-name="Group 14" transform="translate(107.157 32.374)">
          <path id="Path_18" data-name="Path 18" d="M111.788,27.607a.565.565,0,0,1,.7.235l.235.587a.565.565,0,0,1-.235.7L107.324,31.6l8.34,3.524c.117,0,.352.117.352.235l.47.94c.117.352-.117.7-.47.587l-8.34-3.524-3.054,9.4a.39.39,0,0,1-.7,0l-.47-.94a.357.357,0,0,1,0-.47l3.054-9.162-5.756,2.819a.565.565,0,0,1-.7-.235l-.235-.822a.565.565,0,0,1,.235-.7Z" transform="translate(-99.761 -27.561)"/>
        </g>
      </g>
      <g id="Group_23" data-name="Group 23" transform="translate(5.946 98.004)">
        <g id="Group_16" data-name="Group 16" transform="translate(0 4.423)">
          <path id="Path_19" data-name="Path 19" d="M13.953,90.841,29.693,87.2a.706.706,0,0,1,.47.117l.117.235a.706.706,0,0,1,.117.47l-6.93,14.565a.39.39,0,0,1-.7,0l-.587-.7a.706.706,0,0,1-.117-.47l1.762-3.524-5.168-6.46-3.876.94a.706.706,0,0,1-.47-.117l-.587-.7C13.483,91.194,13.6,90.841,13.953,90.841ZM24.407,96.48c1.175-2.349,2.232-4.7,3.406-7.048l-.117-.117-7.635,1.762Z" transform="translate(-13.596 -87.2)"/>
        </g>
        <g id="Group_17" data-name="Group 17" transform="translate(17.084 10.72)">
          <path id="Path_20" data-name="Path 20" d="M34.084,92.842a.565.565,0,0,1,.7-.235l.587.235a.565.565,0,0,1,.235.7l-2.584,5.521,9.28-2.819a.357.357,0,0,1,.47,0l1.057.47a.434.434,0,0,1-.117.822l-9.28,2.7,3.876,9.867c.117.235-.235.7-.587.47l-1.057-.47c-.117-.117-.352-.235-.352-.352l-3.641-9.632-2.937,6.226a.565.565,0,0,1-.7.235l-.587-.235a.471.471,0,0,1-.235-.7Z" transform="translate(-28.14 -92.561)"/>
        </g>
        <g id="Group_18" data-name="Group 18" transform="translate(31.084 17.061)">
          <path id="Path_21" data-name="Path 21" d="M40.107,110.811l9.984-12.686c.117-.117.235-.235.47-.117H50.8c.235,0,.235.117.352.352L54.79,114.1c.117.352-.117.587-.47.47l-.94-.235a.375.375,0,0,1-.352-.352l-.94-3.876L44.1,108.344l-2.467,3.171c-.117.117-.235.235-.47.117l-.94-.235C40.107,111.4,39.99,111.046,40.107,110.811ZM51.854,108.7c-.587-2.584-1.175-5.168-1.762-7.635h-.235l-4.816,6.226Z" transform="translate(-40.059 -97.959)"/>
        </g>
        <g id="Group_19" data-name="Group 19" transform="translate(51.806 18.986)">
          <path id="Path_22" data-name="Path 22" d="M57.7,100.188c0-.235.117-.47.352-.47l5.168-.117a7.9,7.9,0,0,1,8.34,7.4c.117,4.229-3.524,7.635-7.987,7.753l-5.168.117a.524.524,0,0,1-.47-.352Zm5.638,13.038c3.759-.117,6.46-2.7,6.46-6.226-.117-3.524-2.937-5.991-6.7-5.873l-3.524.117.235,12.216Z" transform="translate(-57.7 -99.597)"/>
        </g>
        <g id="Group_20" data-name="Group 20" transform="translate(69.159 15.08)">
          <path id="Path_23" data-name="Path 23" d="M72.5,99.359c-.117-.235.117-.47.352-.47l8.81-2.584c.235-.117.47.117.587.235l.235.587c.117.235-.117.47-.352.47l-7.518,2.232,1.527,5.051L82.489,103c.235-.117.47.117.587.235l.235.587c.117.235-.117.47-.352.47l-6.343,1.879,1.527,5.286,7.518-2.232c.235-.117.47.117.587.235l.235.587c.117.235-.117.47-.352.47l-8.81,2.584c-.235.117-.47-.117-.587-.235Z" transform="translate(-72.473 -96.273)"/>
        </g>
        <g id="Group_21" data-name="Group 21" transform="translate(83.472 6.097)">
          <path id="Path_24" data-name="Path 24" d="M84.707,95.526c-.117-.117,0-.352.117-.47l.352-.235a.357.357,0,0,1,.47,0l10.689,7.048.117-.117L93.282,89.418a.469.469,0,0,1,.235-.47l.352-.235a.357.357,0,0,1,.47,0l10.807,10.1a.44.44,0,0,1,0,.7l-.7.587a.357.357,0,0,1-.47,0l-8.1-7.87h-.117l3.171,11.746a.891.891,0,0,1-.235.47l-.352.235a.357.357,0,0,1-.47,0l-10.1-6.813h-.117l4.816,10.219c.117.117,0,.352-.117.47l-.7.587c-.235.235-.47.117-.587-.235Z" transform="translate(-84.659 -88.625)"/>
        </g>
        <g id="Group_22" data-name="Group 22" transform="translate(97.363)">
          <path id="Path_25" data-name="Path 25" d="M96.62,84.921c-.117-.117-.235-.47,0-.587l.587-.7a.409.409,0,0,1,.587-.117l11.159,8.927c.117.117.235.47,0,.587l-.587.7a.409.409,0,0,1-.587.117Z" transform="translate(-96.485 -83.434)"/>
        </g>
      </g>
    </g>
  </g>
</svg>
