<?xml version="1.0" encoding="utf-8"?>
<!-- Generator: Adobe Illustrator 22.0.1, SVG Export Plug-In . SVG Version: 6.00 Build 0)  -->
<svg version="1.1" id="Flag_of_Norway" xmlns="http://www.w3.org/2000/svg" xmlns:xlink="http://www.w3.org/1999/xlink" x="0px"
	 y="0px" viewBox="0 0 137.5 100" style="enable-background:new 0 0 137.5 100;" xml:space="preserve">
<style type="text/css">
	.st0{fill:#00247D;}
	.st1{fill:#FFFFFF;}
	.st2{fill:#CF142B;}
	.st3{fill:none;}
</style>
<line class="st0" x1="0" y1="100" x2="0" y2="95.5"/>
<line class="st0" x1="0" y1="33.3" x2="0" y2="26.9"/>
<line class="st0" x1="0" y1="73.3" x2="0" y2="66.7"/>
<line class="st0" x1="0" y1="4.6" x2="0" y2="0"/>
<line class="st0" x1="137.5" y1="66.7" x2="137.5" y2="73.3"/>
<line class="st0" x1="137.5" y1="26.9" x2="137.5" y2="33.3"/>
<path class="st0" d="M146.5,0"/>
<line class="st1" x1="137.5" y1="73.3" x2="137.5" y2="77.1"/>
<line class="st1" x1="0" y1="84.4" x2="0" y2="73.3"/>
<line class="st1" x1="0" y1="95.5" x2="0" y2="91.8"/>
<line class="st1" x1="0" y1="15.7" x2="0" y2="4.6"/>
<line class="st1" x1="0" y1="26.9" x2="0" y2="23"/>
<line class="st1" x1="137.5" y1="15.4" x2="137.5" y2="26.9"/>
<line class="st2" x1="0" y1="23" x2="0" y2="15.7"/>
<line class="st2" x1="137.5" y1="8.1" x2="137.5" y2="15.4"/>
<line class="st2" x1="0" y1="91.8" x2="0" y2="84.4"/>
<line class="st2" x1="137.5" y1="77.1" x2="137.5" y2="84.4"/>
<line class="st1" x1="137.5" y1="60" x2="137.5" y2="66.7"/>
<line class="st1" x1="0" y1="40" x2="0" y2="33.3"/>
<line class="st1" x1="0" y1="66.7" x2="0" y2="60"/>
<line class="st1" x1="137.5" y1="33.3" x2="137.5" y2="40"/>
<line class="st2" x1="137.5" y1="40" x2="137.5" y2="60"/>
<line class="st2" x1="0" y1="60" x2="0" y2="40"/>
<polygon class="st3" points="78.8,100 58.8,100 52.1,100 0,100 0,101.3 137.5,101.3 137.5,100 85.4,100 "/>
<polygon class="st0" points="0,66.7 0,73.3 13.2,66.7 "/>
<polygon class="st0" points="0,26.9 0,33.3 12.8,33.3 "/>
<polygon class="st0" points="137.5,33.3 137.5,26.9 124.7,33.3 "/>
<polygon class="st0" points="52.1,30.7 52.1,0 0,0 0,4.6 "/>
<polygon class="st0" points="85.4,69.6 85.4,100 137.5,100 137.5,95.5 "/>
<polygon class="st0" points="52.1,69.6 0,95.5 0,100 52.1,100 "/>
<polygon class="st0" points="137.5,4.5 137.5,0 85.4,0 85.4,30.6 "/>
<polygon class="st0" points="137.5,73.3 137.5,66.7 124.2,66.7 "/>
<polygon class="st1" points="35.5,66.7 13.2,66.7 0,73.3 0,84.4 "/>
<polygon class="st1" points="87.2,33.3 137.5,8.1 137.5,4.5 85.4,30.6 85.4,33.3 "/>
<polygon class="st1" points="20.6,33.3 11.2,28.6 11.2,28.6 0,23 0,26.9 12.8,33.3 "/>
<polygon class="st1" points="35.2,33.3 52.1,33.3 52.1,30.7 0,4.6 0,15.7 "/>
<polygon class="st1" points="50.2,66.7 0,91.8 0,95.5 52.1,69.6 52.1,66.7 "/>
<polygon class="st1" points="116.7,66.7 137.5,77.1 137.5,73.3 124.2,66.7 "/>
<polygon class="st1" points="102,33.3 124.7,33.3 137.5,26.9 137.5,15.4 "/>
<polygon class="st1" points="85.4,66.7 85.4,69.6 137.5,95.5 137.5,84.4 101.9,66.7 "/>
<polygon class="st2" points="102,33.3 137.5,15.4 137.5,8.1 87.2,33.3 "/>
<polygon class="st2" points="116.7,66.7 101.9,66.7 137.5,84.4 137.5,77.1 "/>
<polygon class="st2" points="0,15.7 0,23 11.2,28.6 11.2,28.6 20.6,33.3 35.2,33.3 "/>
<polygon class="st2" points="0,84.4 0,91.8 50.2,66.7 35.5,66.7 "/>
<polygon class="st1" points="111.3,40 137.5,40 137.5,33.3 124.7,33.3 "/>
<polygon class="st1" points="110.8,60 124.2,66.7 137.5,66.7 137.5,60 "/>
<polygon class="st1" points="85.4,30.6 85.4,0 78.8,0 78.8,33.9 "/>
<polygon class="st1" points="58.8,34 58.8,0 52.1,0 52.1,30.7 "/>
<polygon class="st1" points="26.6,60 0,60 0,66.7 13.2,66.7 "/>
<polygon class="st1" points="52.1,69.6 52.1,100 58.8,100 58.8,66.2 "/>
<polygon class="st1" points="78.8,100 85.4,100 85.4,69.6 78.8,66.3 "/>
<polygon class="st1" points="26.1,40 12.8,33.3 0,33.3 0,40 "/>
<polygon class="st1" points="116.7,66.7 124.2,66.7 110.8,60 103.4,60 "/>
<polygon class="st1" points="111.3,40 124.7,33.3 102,33.3 88.8,40 "/>
<polygon class="st1" points="26.6,60 13.2,66.7 35.5,66.7 48.9,60 "/>
<polygon class="st1" points="20.6,33.3 12.8,33.3 26.1,40 33.9,40 "/>
<polygon class="st1" points="58.8,62.4 50.2,66.7 52.1,66.7 52.1,69.6 58.8,66.2 "/>
<polygon class="st1" points="101.9,66.7 88.5,60 78.8,60 78.8,66.3 85.4,69.6 85.4,66.7 "/>
<polygon class="st1" points="87.2,33.3 85.4,33.3 85.4,30.6 78.8,33.9 78.8,37.6 "/>
<polygon class="st1" points="35.2,33.3 48.5,40 58.8,40 58.8,34 52.1,30.7 52.1,33.3 "/>
<polygon class="st1" points="48.9,60 35.5,66.7 50.2,66.7 58.8,62.4 58.8,60 "/>
<polygon class="st1" points="48.5,40 35.2,33.3 20.6,33.3 33.9,40 "/>
<polygon class="st1" points="88.5,60 101.9,66.7 116.7,66.7 103.4,60 "/>
<polygon class="st1" points="78.8,37.6 78.8,40 88.8,40 102,33.3 87.2,33.3 "/>
<polygon class="st2" points="26.1,40 0,40 0,60 26.6,60 46.4,50.1 "/>
<polygon class="st2" points="68.7,39 78.8,33.9 78.8,0 58.8,0 58.8,34 "/>
<polygon class="st2" points="68.7,61.3 58.8,66.2 58.8,100 78.8,100 78.8,66.3 "/>
<polygon class="st2" points="110.8,60 137.5,60 137.5,40 111.3,40 91.1,50.1 "/>
<polygon class="st2" points="68.7,50.1 83.6,50.1 103.4,60 110.8,60 91.1,50.1 111.3,40 88.8,40 "/>
<polygon class="st2" points="68.7,50.1 68.7,57.4 58.8,62.4 58.8,66.2 68.7,61.3 78.8,66.3 78.8,60 88.5,60 68.7,50.1 "/>
<polygon class="st2" points="48.5,40 68.7,50.1 68.6,42.6 78.8,37.6 78.8,33.9 68.7,39 58.8,34 58.8,40 "/>
<polygon class="st2" points="68.7,50.1 68.7,50.1 53.9,50.1 33.9,40 26.1,40 46.4,50.1 26.6,60 48.9,60 "/>
<polygon class="st2" points="83.6,50.1 68.7,50.1 68.7,50.1 88.5,60 103.4,60 "/>
<polygon class="st2" points="68.7,50.1 68.7,50.1 68.7,50.1 48.9,60 58.8,60 58.8,62.4 68.7,57.4 "/>
<polygon class="st2" points="53.9,50.1 68.7,50.1 68.7,50.1 48.5,40 33.9,40 "/>
<polygon class="st2" points="68.7,50.1 68.7,50.1 68.7,50.1 "/>
<polygon class="st2" points="68.7,50.1 68.7,50.1 68.7,50.1 68.7,50.1 68.7,50.1 68.7,50.1 68.7,50.1 68.7,50.1 88.8,40 78.8,40 
	78.8,37.6 68.6,42.6 68.7,50.1 68.7,50.1 "/>
<polygon class="st2" points="68.7,50.1 68.7,50.1 68.7,50.1 68.7,50.1 "/>
<polygon class="st2" points="68.7,50.1 68.7,50.1 68.7,50.1 68.7,50.1 "/>
</svg>
