<svg xmlns="http://www.w3.org/2000/svg" viewBox="0 0 339.72 43.77"><title>Asset 1</title><g data-name="Layer 2"><path d="M184.77 14.9h2.17l5.13 12 5.14-12h2.17V29H198V16.44L192.66 29h-1.2l-5.24-12.56V29h-1.41zm25.03 0h1.58l6.06 14.1h-1.54l-2-4.74h-6.55l-2.1 4.74h-1.47zm-2 8.08h5.47l-2.7-6.48zm14.94-6.8h-3.24V14.9h7.87v1.28h-3.22V29h-1.41zm28.83 3.64l-2.61 5 3.56 3.47-1 1-3.22-3.14c-.5.93-1.66 3.14-4.29 3.14a4.38 4.38 0 0 1-4.44-4.31c0-2.21 1.62-3.45 3.26-4.19a4.16 4.16 0 0 1-1.58-3 3.27 3.27 0 0 1 3.39-3.12 3.37 3.37 0 0 1 3.37 3.3c0 2-2 3-2.74 3.2l2.67 2.63 2.06-4zm-7.73 1.92a7 7 0 0 0-1.39.72A3 3 0 0 0 241 25a3 3 0 0 0 2.91 2.9c1.9 0 2.8-1.77 3.33-2.82zm.78-5.75a1.9 1.9 0 0 0-2 1.77 3.69 3.69 0 0 0 1.6 2.4c.69-.27 2.38-.84 2.34-2.34a1.89 1.89 0 0 0-1.95-1.82zm20.7-1.09h4.12a8.77 8.77 0 0 1 4.56 1.16 7 7 0 0 1 0 11.77 8.77 8.77 0 0 1-4.56 1.17h-4.12zm1.41 12.82h2a8.11 8.11 0 0 0 4.84-1.14 5.94 5.94 0 0 0 2.21-4.65 5.81 5.81 0 0 0-2.4-4.67 7.83 7.83 0 0 0-4.65-1.09h-2zm15.53-12.82h3.58a8 8 0 0 1 3.47.53 4.37 4.37 0 0 1 2.51 4 4.28 4.28 0 0 1-4.19 4.29l4 5.26h-1.77l-4.78-6.38a10.51 10.51 0 0 0 3-.21 3.11 3.11 0 0 0 .78-5.7 5.33 5.33 0 0 0-2.74-.53h-2.46V29h-1.41zm14.54 0h1.41V29h-1.41zm7.2 0h1.41V23l6.46-8.1h1.81l-5.58 6.88 5.64 7.22H312l-4.71-6.12-1.83 2.25V29H304zm14.06 0h1.41V23l6.53-8.1h1.81l-5.58 6.88 5.55 7.22H326l-4.71-6.12-1.83 2.25V29h-1.41zm13.94 0h7.72v1.28h-6.31v5.07h6.1v1.28h-6.1v5.2h6.31V29H332zM23.14.85V31c0 11.26-8.36 12.79-11.48 12.79a11.47 11.47 0 0 1-8.58-3.64A14.3 14.3 0 0 1 0 33h7.84c.51 2.27 1.76 3.47 3.69 3.47 3.35 0 3.81-3.3 3.81-5V.85zM50.1 0a21.89 21.89 0 1 1-22 22 21.94 21.94 0 0 1 22-22zm0 36.49a14.44 14.44 0 0 0 14.21-14.55 14.22 14.22 0 1 0-28.42 0A14.44 14.44 0 0 0 50.1 36.49zm32.09-5.62c.4 4.21 3.18 5.63 5.57 5.63 3.07 0 5.8-2.1 5.8-5.29 0-4.32-2.79-5.12-8-7.11-3.24-1.25-10-3.24-10-12.11A11.94 11.94 0 0 1 87.88 0a12.35 12.35 0 0 1 12.45 12h-8c-.33-3.76-2.57-4.72-4.68-4.72a4.17 4.17 0 0 0-4.32 4.26c0 3.64 2.73 4.43 7 5.86 3.47 1.14 11 3.81 11 13s-7 13.42-13.64 13.42c-5.4 0-13.24-3.64-13.7-12.9zm29.6 0c.4 4.21 3.18 5.63 5.57 5.63 3.07 0 5.8-2.1 5.8-5.29 0-4.32-2.79-5.12-8-7.11-3.24-1.25-10-3.24-10-12.11A11.94 11.94 0 0 1 117.48 0a12.35 12.35 0 0 1 12.45 12h-8c-.34-3.75-2.61-4.72-4.72-4.72a4.17 4.17 0 0 0-4.32 4.26c0 3.64 2.73 4.43 7 5.86 3.47 1.14 11 3.81 11 13s-7 13.42-13.64 13.42c-5.4 0-13.24-3.64-13.7-12.9zM148.5.85h6.08l17.62 42.07h-8.58l-4.49-10.86h-15.06l-4.49 10.86H131zm-1.82 23.87h9.66l-4.77-12.9h-.11z" data-name="Layer 1"/></g></svg>