<svg xmlns="http://www.w3.org/2000/svg" viewBox="0 0 345.1 74.3"><path d="M75 53c-6 13.2-20.6 21.3-35.3 21.3C17.7 74.3 0 57 0 36.9 0 17.2 17.4 0 39.5 0c12.7 0 28.6 6.2 35.9 21.8H59.3c-5.5-5.9-11.9-9.4-20.4-9.4-12.4 0-24.8 10.4-24.8 24.7C14.1 50.5 26 62 39.5 62c10.2 0 15.7-5.6 19.2-9H75zm21-39.2h9.1c11 0 13.6 6.9 13.6 10.8 0 3.8-2 11-13.6 11H96V13.8zM81.8 72.9H96V45.5h.2l20.2 27.3h17.1l-20.7-26.4c3.8-.9 8.1-1.8 12.7-5.9 5.5-4.9 7.3-12.4 7.3-17.1 0-8.2-4.6-14-9-17.3-4.3-3.3-9.8-4.8-18.6-4.8H81.8v71.6zm63-71.5h41v12.4h-26.9v17.5h25.7v12.3h-25.7v16.9h26.9v12.4h-41zm66.7 12.4h2.7c8.8 0 16.3 1 22.1 6 5 4.1 8.1 10.6 8.1 17.6 0 7.6-3.9 15.8-11.4 19.7-6 3-10.9 3.5-18.6 3.5h-3V13.8zm-14.1 59.1H215c8.5 0 18.3-1 25.3-4.6 11.1-5.7 18.2-18 18.2-30.9 0-11.2-5.3-21.8-12.6-27.6-4.4-3.6-12.6-8.3-31.3-8.3h-17.3v71.4zm82.1-35.7c0-13.7 11.4-24.9 25.7-24.9 14.3 0 25.8 11.2 25.8 24.9 0 13.3-11.3 24.7-25.8 24.7-14.5.1-25.7-11.4-25.7-24.7m-14.1.2c0 20.5 17.9 37 39.9 37s39.9-16.5 39.9-37C345.2 16.2 327 0 305.3 0s-39.9 16.2-39.9 37.4"/></svg>