<svg xmlns="http://www.w3.org/2000/svg" viewBox="0 0 341.91 43.84"><title>Asset 1</title><g id="Layer_2" data-name="Layer 2"><g id="Layer_1-2" data-name="Layer 1"><path d="M41.45,31.26A21.39,21.39,0,0,1,22,43.84,22.2,22.2,0,0,1,0,21.75,21.94,21.94,0,0,1,21.81,0,21.62,21.62,0,0,1,41.67,12.87H32.79c-3-3.47-6.6-5.58-11.27-5.58C14.69,7.29,7.8,13.44,7.8,21.86c0,7.91,6.55,14.69,14,14.69,5.64,0,8.71-3.3,10.59-5.29Z"/><path d="M45.65.85H58.57c4.84,0,7.86.91,10.25,2.85a13,13,0,0,1,5,10.19,14.67,14.67,0,0,1-4,10.08,13.64,13.64,0,0,1-7,3.47L74.17,43H64.72L53.56,26.87h-.11V43h-7.8ZM53.45,21h5C64.89,21,66,16.74,66,14.52s-1.42-6.38-7.52-6.38h-5Z"/><path d="M78.35.85H101V8.14H86.15v10.3h14.23v7.29H86.15v10H101V43H78.35Z"/><path d="M107.37.85h9.56c10.36,0,14.86,2.79,17.31,4.9,4,3.42,6.95,9.68,6.95,16.28,0,7.57-3.93,14.86-10.08,18.22-3.87,2.16-9.28,2.73-14,2.73h-9.74Zm7.8,34.84h1.65c4.21,0,6.95-.28,10.25-2,4.16-2.28,6.32-7.12,6.32-11.61a13.93,13.93,0,0,0-4.5-10.36c-3.24-3-7.34-3.53-12.24-3.53h-1.48Z"/><path d="M166.28,0a21.92,21.92,0,1,1-22,22A22,22,0,0,1,166.28,0Zm0,36.55A14.46,14.46,0,0,0,180.51,22,14.24,14.24,0,1,0,152,22,14.46,14.46,0,0,0,166.28,36.55Z"/><path d="M207.72,14.95h3.54a7.87,7.87,0,0,1,3.43.53,4.32,4.32,0,0,1,2.49,4A4.23,4.23,0,0,1,213,23.69l3.94,5.2h-1.75l-4.73-6.31a10.4,10.4,0,0,0,3-.21,3.08,3.08,0,0,0,.77-5.63,5.27,5.27,0,0,0-2.71-.53h-2.43V28.89h-1.39Z"/><path d="M222.06,14.95h7.63v1.26h-6.24v5h6v1.26h-6v5.14h6.24v1.26h-7.63Z"/><path d="M235,25a2.86,2.86,0,0,0,5.71.11c0-2.15-2.17-2.69-3.11-3-1.26-.38-3.62-.9-3.62-3.67a3.89,3.89,0,0,1,7.78,0h-1.39A2.51,2.51,0,0,0,237.9,16a2.43,2.43,0,0,0-2.53,2.43c0,1.7,1.49,2.09,3.32,2.62,3.43.92,3.41,3.62,3.41,4a4.12,4.12,0,0,1-4.2,4.09,4.08,4.08,0,0,1-4.3-4.15Z"/><path d="M248.66,16.21h-3.2V14.95h7.78v1.26h-3.18V28.89h-1.39Z"/><path d="M261.23,14.95h1.56l6,13.95h-1.53l-2-4.69h-6.48l-2,4.69h-1.45Zm-1.94,8h5.41L262,16.53Z"/><path d="M273.85,14.95v8.69a5.59,5.59,0,0,0,.47,2.53,3.28,3.28,0,0,0,5.77,0,5.59,5.59,0,0,0,.47-2.53V14.95h1.39v8.69a7.07,7.07,0,0,1-.53,2.9,4.73,4.73,0,0,1-8.44,0,7.07,7.07,0,0,1-.53-2.9V14.95Z"/><path d="M287.6,14.95h3.54a7.87,7.87,0,0,1,3.43.53,4.32,4.32,0,0,1,2.49,4,4.23,4.23,0,0,1-4.15,4.24l3.94,5.2H295.1l-4.73-6.31a10.4,10.4,0,0,0,3-.21,3.08,3.08,0,0,0,.77-5.63,5.27,5.27,0,0,0-2.71-.53H289V28.89H287.6Z"/><path d="M306.86,14.95h1.56l6,13.95h-1.53l-2-4.69h-6.48l-2,4.69h-1.45Zm-1.94,8h5.41l-2.68-6.41Z"/><path d="M318.75,14.95h1.88l7.78,11.57h0V14.95h1.39V28.89h-1.39l-8.27-12.27h0V28.89h-1.39Z"/><path d="M337.33,16.21h-3.2V14.95h7.78v1.26h-3.18V28.89h-1.39Z"/></g></g></svg>