<svg xmlns="http://www.w3.org/2000/svg" viewBox="0 0 188.81 43.89"><title>Asset 1</title><g id="Layer_2" data-name="Layer 2"><g id="Layer_1-2" data-name="Layer 1"><path d="M0,.85H32.63v7.3H7.81V18.47H32v7.3H7.81V43H0Z"/><path d="M37.59.85H45.4V43H37.59Z"/><path d="M52.66.85h8.89L79,31.52h.11V.85h7.81V43H78.2L60.59,12.37h-.11V43H52.66Z"/><path d="M94.24.85h8.89l17.44,30.66h.11V.85h7.81V43h-8.72L102.16,12.37H102V43H94.24Z"/><path d="M135.58.85h22.68v7.3H143.39V18.47h14.25v7.3H143.39v10h14.88V43H135.58Z"/><path d="M169.61,30.95c.4,4.22,3.19,5.64,5.59,5.64,3.08,0,5.81-2.11,5.81-5.3,0-4.33-2.79-5.13-8-7.12-3.25-1.25-10-3.25-10-12.14A12,12,0,0,1,175.31,0a12.38,12.38,0,0,1,12.48,12h-8c-.34-3.76-2.62-4.73-4.73-4.73a4.18,4.18,0,0,0-4.33,4.27c0,3.65,2.74,4.45,7,5.87,3.48,1.14,11.06,3.82,11.06,13s-7.07,13.45-13.68,13.45c-5.41,0-13.28-3.65-13.74-12.94Z"/></g></g></svg>