<svg xmlns="http://www.w3.org/2000/svg" viewBox="0 0 172.21 43.77"><title>Asset 1</title><g id="Layer_2" data-name="Layer 2"><g id="Layer_1-2" data-name="Layer 1"><path d="M23.14.85V31c0,11.26-8.36,12.79-11.48,12.79a11.47,11.47,0,0,1-8.58-3.64A14.3,14.3,0,0,1,0,33H7.84c.51,2.27,1.76,3.47,3.69,3.47,3.35,0,3.81-3.3,3.81-5V.85Z"/><path d="M50.1,0a21.89,21.89,0,1,1-22,22A21.94,21.94,0,0,1,50.1,0Zm0,36.49A14.44,14.44,0,0,0,64.31,21.94a14.22,14.22,0,1,0-28.42,0A14.44,14.44,0,0,0,50.1,36.49Z"/><path d="M82.19,30.87c.4,4.21,3.18,5.63,5.57,5.63,3.07,0,5.8-2.1,5.8-5.29,0-4.32-2.79-5.12-8-7.11-3.24-1.25-10-3.24-10-12.11A11.94,11.94,0,0,1,87.88,0a12.35,12.35,0,0,1,12.45,12h-8C92,8.24,89.76,7.28,87.65,7.28a4.17,4.17,0,0,0-4.32,4.26c0,3.64,2.73,4.43,7,5.86,3.47,1.14,11,3.81,11,13s-7,13.42-13.64,13.42c-5.4,0-13.24-3.64-13.7-12.9Z"/><path d="M111.79,30.87c.4,4.21,3.18,5.63,5.57,5.63,3.07,0,5.8-2.1,5.8-5.29,0-4.32-2.79-5.12-8-7.11-3.24-1.25-10-3.24-10-12.11A11.94,11.94,0,0,1,117.48,0a12.35,12.35,0,0,1,12.45,12h-8c-.34-3.75-2.61-4.72-4.72-4.72a4.17,4.17,0,0,0-4.32,4.26c0,3.64,2.73,4.43,7,5.86,3.47,1.14,11,3.81,11,13s-7,13.42-13.64,13.42c-5.4,0-13.24-3.64-13.7-12.9Z"/><path d="M148.5.85h6.08l17.62,42.07h-8.58l-4.49-10.86H144.07l-4.49,10.86H131Zm-1.82,23.87h9.66l-4.77-12.9h-.11Z"/></g></g></svg>