<?xml version="1.0" encoding="utf-8"?>
<!-- Generator: Adobe Illustrator 22.0.1, SVG Export Plug-In . SVG Version: 6.00 Build 0)  -->
<svg version="1.1" id="Layer_1" xmlns="http://www.w3.org/2000/svg" xmlns:xlink="http://www.w3.org/1999/xlink" x="0px" y="0px"
	 viewBox="0 0 341.9 87.4" style="enable-background:new 0 0 341.9 87.4;" xml:space="preserve">
<style type="text/css">
	.st0{fill:#1D1D1B;}
</style>
<title>Asset 1</title>
<g>
	<path d="M41.5,31.3C38,38.9,30.4,43.8,22,43.8C9.9,43.7,0.1,33.9,0,21.8C0.1,9.8,9.8,0.1,21.8,0c8.6,0,16.4,5,19.9,12.9h-8.9
		c-3-3.5-6.6-5.6-11.3-5.6c-6.8,0-13.7,6.2-13.7,14.6c0,7.9,6.6,14.7,14,14.7c5.6,0,8.7-3.3,10.6-5.3L41.5,31.3z M45.7,0.9h12.9
		c4.8,0,7.9,0.9,10.2,2.8c3.1,2.5,5,6.2,5,10.2c0,3.7-1.4,7.4-4,10.1c-1.9,1.8-4.4,3-7,3.5L74.2,43h-9.4L53.6,26.9h-0.1V43h-7.8V0.9
		z M53.5,21h5c6.4,0,7.5-4.3,7.5-6.5s-1.4-6.4-7.5-6.4h-5L53.5,21z M78.3,0.9H101v7.3H86.2v10.3h14.2v7.3H86.2v10H101V43H78.3V0.9z
		 M107.4,0.9h9.6c10.4,0,14.9,2.8,17.3,4.9c4,3.4,6.9,9.7,6.9,16.3c0,7.6-3.9,14.9-10.1,18.2c-3.9,2.2-9.3,2.7-14,2.7h-9.7
		L107.4,0.9z M115.2,35.7h1.7c4.2,0,6.9-0.3,10.2-2c4.2-2.3,6.3-7.1,6.3-11.6c0-3.9-1.6-7.7-4.5-10.4c-3.2-3-7.3-3.5-12.2-3.5h-1.5
		V35.7z M166.3,0c12.1,0,21.9,9.9,21.8,22s-9.9,21.9-22,21.8c-12,0-21.8-9.8-21.8-21.8C144.3,9.8,154.1,0,166.3,0z M166.3,36.6
		c7.9-0.1,14.3-6.6,14.2-14.5c0-7.9-6.4-14.3-14.3-14.3c-7.9,0-14.3,6.4-14.3,14.3C151.9,30,158.3,36.5,166.3,36.6z M207.7,15h3.5
		c1.2-0.1,2.3,0.1,3.4,0.5c1.5,0.7,2.5,2.3,2.5,4c0,2.3-1.9,4.2-4.2,4.2l3.9,5.2h-1.8l-4.7-6.3c1,0.1,2,0,3-0.2
		c1.6-0.4,2.6-2.1,2.2-3.8c-0.2-0.8-0.7-1.5-1.4-1.9c-0.8-0.4-1.8-0.6-2.7-0.5h-2.4v12.7h-1.4L207.7,15z M222.1,15h7.6v1.3h-6.2v5h6
		v1.3h-6v5.1h6.2v1.3h-7.6V15z M235,25c0.1,1.6,1.4,2.8,3,2.8c1.5-0.1,2.6-1.2,2.7-2.6c0-2.1-2.2-2.7-3.1-3
		c-1.3-0.4-3.6-0.9-3.6-3.7c0-2.1,1.7-3.9,3.9-3.9c2.1,0,3.9,1.7,3.9,3.9h-1.4c0-1.3-1.1-2.4-2.5-2.4c-1.3-0.1-2.5,1-2.5,2.3
		c0,0,0,0.1,0,0.1c0,1.7,1.5,2.1,3.3,2.6c3.4,0.9,3.4,3.6,3.4,4c0,2.3-1.9,4.1-4.1,4.1c0,0,0,0-0.1,0c-2.3,0.1-4.2-1.6-4.3-3.9
		c0-0.1,0-0.2,0-0.3L235,25z M248.7,16.2h-3.2V15h7.8v1.3h-3.2v12.7h-1.4L248.7,16.2z M261.2,15h1.6l6,13.9h-1.5l-2-4.7h-6.5l-2,4.7
		h-1.4L261.2,15z M259.3,23h5.4l-2.7-6.4L259.3,23z M273.9,15v8.7c0,0.9,0.1,1.7,0.5,2.5c0.9,1.6,2.9,2.2,4.4,1.3
		c0.6-0.3,1-0.8,1.3-1.3c0.4-0.8,0.5-1.7,0.5-2.5V15h1.4v8.7c0,1-0.2,2-0.5,2.9c-1.2,2.3-4,3.3-6.4,2.1c-0.9-0.5-1.6-1.2-2.1-2.1
		c-0.4-0.9-0.6-1.9-0.5-2.9V15L273.9,15z M287.6,15h3.5c1.2-0.1,2.3,0.1,3.4,0.5c1.5,0.7,2.5,2.3,2.5,4c0,2.3-1.8,4.2-4.1,4.2
		l3.9,5.2h-1.8l-4.7-6.3c1,0.1,2,0,3-0.2c1.6-0.4,2.6-2.1,2.2-3.8c-0.2-0.8-0.7-1.5-1.4-1.9c-0.8-0.4-1.8-0.6-2.7-0.5H289v12.6h-1.4
		V15z M306.9,15h1.6l6,13.9h-1.5l-2-4.7h-6.5l-2,4.7H301L306.9,15z M304.9,23h5.4l-2.7-6.4L304.9,23z M318.8,15h1.9l7.8,11.6V15h1.4
		v13.9h-1.4l-8.3-12.3v12.3h-1.4V15z M337.3,16.2h-3.2V15h7.8v1.3h-3.2v12.7h-1.4L337.3,16.2z"/>
</g>
<path class="st0" d="M99.3,81.4v1.4c0,1.4-0.4,2.5-1.3,3.4c-0.9,0.9-2,1.3-3.3,1.3c-1.5,0-2.6-0.5-3.4-1.4c-0.8-0.9-1.2-2.1-1.2-3.6
	v-0.4c0-0.1,0-0.1,0-0.2l0-0.5c-1.4,1-2.6,1.5-3.7,1.5c-0.9,0-1.7-0.3-2.4-0.9c-0.8-0.6-1.3-1.3-1.6-2.1c-0.3-0.6-0.4-1.2-0.4-1.8
	c0-1.9,1.1-3.3,3.2-4.3l0.4-0.2c-2.4-1.1-3.6-2.6-3.6-4.5c0-1.3,0.4-2.4,1.3-3.3c0.9-1,1.9-1.5,3.2-1.5c1.1,0,2.2,0.4,3.3,1.2
	l0.4,0.3c-0.1-0.6-0.1-1-0.1-1.3c0-1.4,0.4-2.5,1.3-3.4c0.9-0.9,2-1.3,3.3-1.3c1.5,0,2.6,0.5,3.4,1.4c0.8,0.9,1.2,2.1,1.2,3.6v0.6
	v0.5c1.3-1,2.6-1.5,3.7-1.5c1.2,0,2.2,0.5,3.1,1.5c0.9,1,1.3,2.1,1.3,3.3c0,1.9-1.1,3.3-3.2,4.3l-0.4,0.2c2.4,1.1,3.6,2.6,3.6,4.4
	c0,1.2-0.4,2.3-1.3,3.3c-0.9,1-1.9,1.5-3.1,1.5c-1.2,0-2.3-0.4-3.3-1.2L99.3,81.4z M97,76.7c2.1,3.1,4.1,4.7,6,4.7
	c0.8,0,1.4-0.3,2.1-1c0.6-0.7,0.9-1.4,0.9-2.3c0-2.3-2.5-3.6-7.4-4.1v-0.8c4.9-0.4,7.4-1.8,7.4-4.1c0-0.8-0.3-1.6-0.9-2.3
	c-0.6-0.7-1.3-1-2.1-1c-1.9,0-3.8,1.6-6,4.7l-0.7-0.4c1.1-2.1,1.6-3.9,1.6-5.4c0-2.3-1-3.4-3.1-3.4c-1,0-1.8,0.3-2.3,0.9
	c-0.5,0.6-0.8,1.4-0.8,2.4c0,1.5,0.5,3.3,1.6,5.5l-0.7,0.4c-2.1-3.1-4.1-4.7-5.9-4.7c-0.8,0-1.4,0.3-2.1,1c-0.6,0.7-0.9,1.4-0.9,2.3
	c0,2.3,2.5,3.7,7.4,4.1V74c-4.9,0.4-7.4,1.8-7.4,4.1c0,0.8,0.3,1.6,0.9,2.3c0.6,0.7,1.3,1,2.1,1c1.8,0,3.8-1.6,5.9-4.7l0.7,0.4
	c-1.1,2.2-1.6,4-1.6,5.5c0,1,0.3,1.8,0.8,2.4c0.5,0.6,1.3,0.9,2.3,0.9c2.1,0,3.1-1.1,3.1-3.4c0-1.5-0.5-3.3-1.6-5.5L97,76.7z"/>
</svg>
