<svg xmlns="http://www.w3.org/2000/svg" viewBox="0 0 188.31 43.84"><title>Asset 1</title><g data-name="Layer 2"><path d="M41.45 31.26A21.39 21.39 0 0 1 22 43.84 22.2 22.2 0 0 1 0 21.75 21.94 21.94 0 0 1 21.81 0a21.62 21.62 0 0 1 19.86 12.87h-8.88c-3-3.47-6.6-5.58-11.27-5.58-6.83 0-13.72 6.15-13.72 14.57 0 7.91 6.55 14.69 14 14.69 5.64 0 8.71-3.3 10.59-5.29zM45.65.85h12.92c4.84 0 7.86.91 10.25 2.85a13 13 0 0 1 5 10.19 14.67 14.67 0 0 1-4 10.08 13.64 13.64 0 0 1-7 3.47L74.17 43h-9.45L53.56 26.87h-.11V43h-7.8zM53.45 21h5c6.44 0 7.55-4.26 7.55-6.48s-1.42-6.38-7.52-6.38h-5zM78.35.85H101v7.29H86.15v10.3h14.23v7.29H86.15v10H101V43H78.35zm29.02 0h9.56c10.36 0 14.86 2.79 17.31 4.9 4 3.42 6.95 9.68 6.95 16.28 0 7.57-3.93 14.86-10.08 18.22-3.87 2.16-9.28 2.73-14 2.73h-9.74zm7.8 34.84h1.65c4.21 0 6.95-.28 10.25-2 4.16-2.28 6.32-7.12 6.32-11.61a13.93 13.93 0 0 0-4.5-10.36c-3.24-3-7.34-3.53-12.24-3.53h-1.48zM166.28 0a21.92 21.92 0 1 1-22 22 22 22 0 0 1 22-22zm0 36.55A14.46 14.46 0 0 0 180.51 22 14.24 14.24 0 1 0 152 22a14.46 14.46 0 0 0 14.28 14.55z" data-name="Layer 1"/></g></svg>