<svg width="1124" height="288" viewBox="0 0 1124 288" fill="none" xmlns="http://www.w3.org/2000/svg">
<g clip-path="url(#clip0)">
<path d="M0 2.95312V158.957H86.6445V123.961H38.1562V97.1875H85.1719V62.1914H38.1562V37.9492H86.6445V2.95312H0Z" fill="#131212"/>
<path d="M140.543 123.961H157.621C187.344 123.961 195.777 103.301 195.777 81.1641C195.777 72.3086 193.879 61.1367 188.188 52.2812C183.551 45.3242 175.539 37.9453 157.832 37.9453H140.543V123.961ZM100.699 2.95312H152.352C169.848 2.95312 201.047 2.95312 221.289 32.043C232.039 46.8008 235.621 63.457 235.621 80.5312C235.621 123.117 214.543 158.957 155.301 158.957H100.699V2.95312Z" fill="#131212"/>
<path d="M459.789 81.375H473.914C497.316 81.375 500.059 66.6172 500.059 59.0273C500.059 44.9023 489.727 37.9453 474.336 37.9453H459.789V81.375ZM421.633 2.95312H470.965C498.371 2.95312 508.91 6.32422 519.031 14.125C531.891 24.2422 538.215 40.6875 538.215 56.707C538.215 74.6289 528.938 100.98 499.426 105.828L541.797 158.957H496.262L460.211 108.57H459.789V158.957H421.633V2.95312Z" fill="#131212"/>
<path d="M606.215 104.773H638.891L622.871 51.4375H622.238L606.215 104.773ZM595.254 136.398L587.031 158.957H544.238L606.848 2.95312H638.262L700.238 158.957H657.023L649.434 136.398H595.254Z" fill="#131212"/>
<path d="M707.762 2.95312H758.988L789.977 105.617H790.398L820.969 2.95312H872.406V158.957H835.727L836.988 42.1641L836.566 41.7422L803.258 158.957H776.906L743.598 41.7422L743.176 42.1641L744.441 158.957H707.762V2.95312Z" fill="#131212"/>
<path d="M889.32 2.95312H975.965V37.9492H927.477V62.1914H974.488V97.1836H927.477V123.961H975.965V158.957H889.32V2.95312Z" fill="#131212"/>
<path d="M992.129 2.95312H1026.49L1086.79 100.98L1087.21 100.559L1085.52 2.95312H1123.68V158.957H1089.11L1029.65 64.0859L1029.23 64.2969L1030.29 158.957H992.129V2.95312Z" fill="#131212"/>
<path d="M326.414 34.9961C355.086 34.9961 368.789 60.9258 368.789 81.1641C368.789 101.191 355.086 126.91 326.836 126.91C300.062 126.91 283.828 104.566 283.828 80.5312C283.828 58.6055 298.797 34.9961 326.414 34.9961ZM326.219 0C278.164 0.0078125 243.809 37.5312 243.809 80.9531V211.188C243.809 235.508 260.828 255.84 283.602 260.957V276.199C283.602 282.461 288.68 287.539 294.941 287.539H357.457C363.719 287.539 368.797 282.461 368.797 276.199V260.965C391.59 255.863 408.633 235.523 408.633 211.188V80.9531C408.633 37.5312 374.277 0.0078125 326.219 0Z" fill="#171716"/>
<path d="M343.281 106.289H309.266V100.617H343.281V106.289Z" fill="#0C0B0B"/>
<path d="M305.102 74.4844C305.102 76.8359 303.199 78.7383 300.848 78.7383C298.5 78.7383 296.598 76.8359 296.598 74.4844C296.598 72.1367 298.5 70.2344 300.848 70.2344C303.199 70.2344 305.102 72.1367 305.102 74.4844Z" fill="#0C0B0B"/>
<path d="M355.949 74.4844C355.949 76.8359 354.047 78.7383 351.699 78.7383C349.352 78.7383 347.445 76.8359 347.445 74.4844C347.445 72.1367 349.352 70.2344 351.699 70.2344C354.047 70.2344 355.949 72.1367 355.949 74.4844Z" fill="#0C0B0B"/>
</g>
<defs>
<clipPath id="clip0">
<rect width="1123.68" height="287.538" fill="white"/>
</clipPath>
</defs>
</svg>
