<svg xmlns="http://www.w3.org/2000/svg" viewBox="0 0 257.41 43.89"><title>Asset 1</title><g data-name="Layer 2"><path fill="#ffffff" d="M206.63 14.87H208V23l6.45-8.09h1.81l-5.58 6.87 5.66 7.22h-1.77l-4.7-6.11L208 25.1V29h-1.41zm19.37 0h1.58L233.67 29h-1.54l-2-4.74h-6.55L221.49 29H220zm-2 8.07h5.46l-2.7-6.47zm14-8.07h7.12v1.28h-5.71v5.1h5.5v1.28h-5.5V29H238zm11.7 0h7.71v1.28h-6.3v5.06h6.09v1.28h-6.09v5.2h6.3V29h-7.71zm5.48-4l.61 1.14-3.77 2-.62-1.01zM0 .85h32.63v7.3H7.81v10.32H32v7.3H7.81V43H0zm37.59 0h7.81V43h-7.81zm15.07 0h8.89L79 31.52h.11V.85h7.81V43H78.2L60.59 12.37h-.11V43h-7.82zm41.58 0h8.89l17.44 30.66h.11V.85h7.81V43h-8.72l-17.61-30.63H102V43h-7.76zm41.34 0h22.68v7.3h-14.87v10.32h14.25v7.3h-14.25v10h14.88V43h-22.69zm34.03 30.1c.4 4.22 3.19 5.64 5.59 5.64 3.08 0 5.81-2.11 5.81-5.3 0-4.33-2.79-5.13-8-7.12-3.25-1.25-10-3.25-10-12.14A12 12 0 0 1 175.31 0a12.38 12.38 0 0 1 12.48 12h-8c-.34-3.76-2.62-4.73-4.73-4.73a4.18 4.18 0 0 0-4.33 4.27c0 3.65 2.74 4.45 7 5.87 3.48 1.14 11.06 3.82 11.06 13s-7.07 13.45-13.68 13.45c-5.41 0-13.28-3.65-13.74-12.94z" data-name="Layer 1"/></g></svg>
