<?xml version="1.0" encoding="utf-8"?>
<!-- Generator: Adobe Illustrator 21.0.0, SVG Export Plug-In . SVG Version: 6.00 Build 0)  -->
<!DOCTYPE svg PUBLIC "-//W3C//DTD SVG 1.1//EN" "http://www.w3.org/Graphics/SVG/1.1/DTD/svg11.dtd">
<svg version="1.1" id="Layer_1" xmlns="http://www.w3.org/2000/svg" xmlns:xlink="http://www.w3.org/1999/xlink" x="0px" y="0px"
	 viewBox="0 0 345.1 74.3" style="enable-background:new 0 0 345.1 74.3;" xml:space="preserve">
<path d="M75,53c-6,13.2-20.6,21.3-35.3,21.3C17.7,74.3,0,57,0,36.9C0,17.2,17.4,0,39.5,0c12.7,0,28.6,6.2,35.9,21.8H59.3
	c-5.5-5.9-11.9-9.4-20.4-9.4c-12.4,0-24.8,10.4-24.8,24.7C14.1,50.5,26,62,39.5,62c10.2,0,15.7-5.6,19.2-9H75z"/>
<path d="M96,13.8h9.1c11,0,13.6,6.9,13.6,10.8c0,3.8-2,11-13.6,11H96V13.8z M81.8,72.9H96V45.5h0.2l20.2,27.3h17.1l-20.7-26.4
	c3.8-0.9,8.1-1.8,12.7-5.9c5.5-4.9,7.3-12.4,7.3-17.1c0-8.2-4.6-14-9-17.3c-4.3-3.3-9.8-4.8-18.6-4.8H81.8V72.9z"/>
<polygon points="144.8,1.4 185.8,1.4 185.8,13.8 158.9,13.8 158.9,31.3 184.6,31.3 184.6,43.6 158.9,43.6 158.9,60.5 185.8,60.5 
	185.8,72.9 144.8,72.9 "/>
<path d="M211.5,13.8h2.7c8.8,0,16.3,1,22.1,6c5,4.1,8.1,10.6,8.1,17.6c0,7.6-3.9,15.8-11.4,19.7c-6,3-10.9,3.5-18.6,3.5h-3V13.8z
	 M197.4,72.9h17.6c8.5,0,18.3-1,25.3-4.6c11.1-5.7,18.2-18,18.2-30.9c0-11.2-5.3-21.8-12.6-27.6c-4.4-3.6-12.6-8.3-31.3-8.3h-17.3
	V72.9z"/>
<path d="M279.5,37.2c0-13.7,11.4-24.9,25.7-24.9c14.3,0,25.8,11.2,25.8,24.9c0,13.3-11.3,24.7-25.8,24.7
	C290.7,62,279.5,50.5,279.5,37.2 M265.4,37.4c0,20.5,17.9,37,39.9,37c22,0,39.9-16.5,39.9-37c0-21.2-18.2-37.4-39.9-37.4
	C283.6,0,265.4,16.2,265.4,37.4"/>
</svg>
